<?xml version="1.0" encoding="utf-8"?>
<!-- Generator: Adobe Illustrator 27.9.1, SVG Export Plug-In . SVG Version: 6.00 Build 0)  -->
<svg version="1.1" id="Camada_1" xmlns="http://www.w3.org/2000/svg" xmlns:xlink="http://www.w3.org/1999/xlink" x="0px" y="0px"
	 viewBox="0 0 1080 542" style="enable-background:new 0 0 1080 542;" xml:space="preserve">
<style type="text/css">
	.st0{fill:url(#SVGID_1_);}
	.st1{fill:#0D17C7;}
	.st2{fill:url(#SVGID_00000087409207885305464090000002370315377441046166_);}
	.st3{fill:#0010CC;}
</style>
<g>
	
		<linearGradient id="SVGID_1_" gradientUnits="userSpaceOnUse" x1="268.058" y1="588.8456" x2="416.7875" y2="610.6984" gradientTransform="matrix(0.9914 0.1306 -0.1306 0.9914 151.8845 -216.196)">
		<stop  offset="0.154" style="stop-color:#0D17C7;stop-opacity:0"/>
		<stop  offset="1" style="stop-color:#0D17C7"/>
	</linearGradient>
	<path class="st0" d="M496.64,541.5c-44.78-5.9-63.73-33.99-78.96-56.57c-17.49-25.93-32.6-48.33-87.86-55.61l11.41-51.83
		c78.88,10.39,100.91,49.14,120.29,77.87c14.46,21.44,21.71,31.03,42.03,33.71c12.13,1.6,35.94-1.93,39.2-26.71
		c4.85-36.8-15.97-46.24-48.29-56.44c-7.99-2.52-14.89-4.7-20.71-8.18l27.11-45.39c-0.28-0.17-0.45-0.25-0.45-0.25
		c1.47,0.72,6.38,2.27,9.97,3.4c14.97,4.73,37.59,11.87,56.01,28.05c16.38,14.39,34.67,40.94,28.78,85.71
		c-2.68,20.32-13.19,39.66-28.85,53.07C553.25,533.55,530.54,545.96,496.64,541.5z"/>
	<path class="st1" d="M533.88,184.48l-19.87-2.62c-59.7-7.86-115.24,33.7-123.14,93.4c-0.11,0.8-0.2,1.61-0.29,2.41
		c-6.78,61.04,36.66,116.9,97.49,125.39c62.64,8.75,120.51-35.38,128.75-97.98c5.02-38.12-9.51-74.39-35.82-98.68
		C567.96,194.39,551.46,186.79,533.88,184.48z M495.86,350.77c-33.39-4.4-56.98-35.14-52.58-68.53
		c4.4-33.39,35.14-56.98,68.53-52.58c33.39,4.4,56.98,35.14,52.58,68.53S529.25,355.17,495.86,350.77z"/>
	<g>
		<g>
			<circle class="st1" cx="326.21" cy="127.86" r="31.68"/>
			<polygon class="st1" points="295.62,178.18 349.14,178.18 327.68,395.1 274.55,395.1 			"/>
		</g>
	</g>
	<g>
		<circle class="st1" cx="711.31" cy="127.86" r="31.68"/>
		<polygon class="st1" points="680.72,178.18 734.24,178.18 712.78,395.1 659.65,395.1 		"/>
	</g>
	<path class="st1" d="M211.18-0.43c-7.56,64.61-12.09,106.33-16.1,143.27c-1.36,12.52-2.67,24.55-4.02,36.85
		c-11.8,0.18-27.51,0.3-52.13,0.32c-2.45-0.16-4.93-0.25-7.45-0.25l-21.49,0.2C49.76,179.95,0.04,226.68,0,286.9
		c0,0.81,0.01,1.62,0.02,2.43c1.24,61.4,51.61,111.11,113.02,111.59c19.87,0.16,38.59-4.81,54.93-13.64
		c8.31-3.38,15.97-7.75,22.82-13.1c22.33-17.43,35.8-43.87,40.03-78.59c3-24.6,5.45-45.36,7.61-64.07l5.95-52.97
		c1.09-9.95,2.16-19.81,3.27-30c4.13-38,8.8-81.06,16.77-148.98H211.18z M175.03,286.97c0,33.68-27.4,61.08-61.08,61.08
		c-33.68,0-61.08-27.4-61.08-61.08s27.4-61.08,61.08-61.08C147.63,225.9,175.03,253.3,175.03,286.97z"/>
	<path class="st1" d="M1034.57,207.56c-18.45-11.58-65.56-30.87-133.03,13.45l5.73,57.95l0.44,0.52
		c38.97-33.09,76.36-43.97,100.01-29.14c17.83,11.19,25.87,36.01,19.55,60.37c-3.62,13.97-20.38,59.24-83.52,55.57
		c-46.28-2.7-100.14-35.01-109.04-99.54c-7.6-55.14,9.53-104.57,48.22-139.2c45.9-41.08,114.99-56.41,180.5-40.13l5.02-50.7
		c-79.4-17.4-162.69,2.63-219.19,53.19c-51.61,46.18-74.54,111.43-64.58,183.73c12.79,92.78,89.89,139.2,156.12,143.07
		c3.22,0.19,6.42,0.28,9.57,0.28c62.01,0,110.84-35.95,125.79-93.59C1088.14,277.23,1071.42,230.68,1034.57,207.56z"/>
</g>
</svg>
