<?xml version="1.0" encoding="utf-8"?>
<!-- Generator: Adobe Illustrator 27.9.1, SVG Export Plug-In . SVG Version: 6.00 Build 0)  -->
<svg version="1.1" id="Camada_1" xmlns="http://www.w3.org/2000/svg" xmlns:xlink="http://www.w3.org/1999/xlink" x="0px" y="0px"
	 viewBox="0 0 1352.14 542" style="enable-background:new 0 0 1352.14 542;" xml:space="preserve">
<style type="text/css">
	.st0{fill:url(#SVGID_1_);}
	.st1{fill:#0D17C7;}
	.st2{fill:url(#SVGID_00000114776994842449884470000006895532629704075449_);}
	.st3{fill:#0010CC;}
</style>
<g>
	
		<linearGradient id="SVGID_1_" gradientUnits="userSpaceOnUse" x1="258.6438" y1="445.2403" x2="407.3733" y2="467.093" gradientTransform="matrix(0.9914 0.1306 -0.1306 0.9914 142.4704 -72.5906)">
		<stop  offset="0.154" style="stop-color:#0D17C7;stop-opacity:0"/>
		<stop  offset="1" style="stop-color:#0D17C7"/>
	</linearGradient>
	<path class="st0" d="M496.64,541.5c-44.78-5.9-63.73-33.99-78.96-56.57c-17.49-25.93-32.6-48.33-87.86-55.61l11.41-51.83
		c78.88,10.39,100.91,49.14,120.29,77.87c14.46,21.44,21.71,31.03,42.03,33.71c12.13,1.6,35.94-1.93,39.2-26.71
		c4.85-36.8-15.97-46.24-48.29-56.44c-7.99-2.52-14.89-4.7-20.71-8.18l27.11-45.39c-0.28-0.17-0.45-0.25-0.45-0.25
		c1.47,0.72,6.38,2.27,9.97,3.4c14.97,4.73,37.59,11.87,56.01,28.05c16.38,14.39,34.67,40.94,28.78,85.71
		c-2.68,20.32-13.19,39.66-28.85,53.07C553.25,533.55,530.54,545.96,496.64,541.5z"/>
	<path class="st1" d="M533.88,184.48l-19.87-2.62c-59.7-7.86-115.24,33.7-123.14,93.4c-0.11,0.8-0.2,1.61-0.29,2.41
		c-6.78,61.04,36.66,116.9,97.49,125.39c62.64,8.75,120.51-35.38,128.75-97.98c5.02-38.12-9.51-74.39-35.82-98.68
		C567.96,194.39,551.46,186.79,533.88,184.48z M495.86,350.77c-33.39-4.4-56.98-35.14-52.58-68.53
		c4.4-33.39,35.14-56.98,68.53-52.58c33.39,4.4,56.98,35.14,52.58,68.53S529.25,355.17,495.86,350.77z"/>
	<g>
		<g>
			<circle class="st1" cx="326.21" cy="127.86" r="31.68"/>
			<polygon class="st1" points="295.62,178.18 349.14,178.18 327.68,395.1 274.55,395.1 			"/>
		</g>
	</g>
	<g>
		<circle class="st1" cx="711.31" cy="127.86" r="31.68"/>
		<polygon class="st1" points="680.72,178.18 734.24,178.18 712.78,395.1 659.65,395.1 		"/>
	</g>
	<path class="st1" d="M211.18-0.43c-7.56,64.61-12.09,106.33-16.1,143.27c-1.36,12.52-2.67,24.55-4.02,36.85
		c-11.8,0.18-27.51,0.3-52.13,0.32c-2.45-0.16-4.93-0.25-7.45-0.25l-21.49,0.2C49.76,179.95,0.04,226.68,0,286.9
		c0,0.81,0.01,1.62,0.02,2.43c1.24,61.4,51.61,111.11,113.02,111.59c19.87,0.16,38.59-4.81,54.93-13.64
		c8.31-3.38,15.97-7.75,22.82-13.1c22.33-17.43,35.8-43.87,40.03-78.59c3-24.6,5.45-45.36,7.61-64.07l5.95-52.97
		c1.09-9.95,2.16-19.81,3.27-30c4.13-38,8.8-81.06,16.77-148.98H211.18z M175.03,286.97c0,33.68-27.4,61.08-61.08,61.08
		c-33.68,0-61.08-27.4-61.08-61.08s27.4-61.08,61.08-61.08C147.63,225.9,175.03,253.3,175.03,286.97z"/>
	<path class="st1" d="M1034.57,207.56c-18.45-11.58-65.56-30.87-133.03,13.45l5.73,57.95l0.44,0.52
		c38.97-33.09,76.36-43.97,100.01-29.14c17.83,11.19,25.87,36.01,19.55,60.37c-3.62,13.97-20.38,59.24-83.52,55.57
		c-46.28-2.7-100.14-35.01-109.04-99.54c-7.6-55.14,9.53-104.57,48.22-139.2c45.9-41.08,114.99-56.41,180.5-40.13l5.02-50.7
		c-79.4-17.4-162.69,2.63-219.19,53.19c-51.61,46.18-74.54,111.43-64.58,183.73c12.79,92.78,89.89,139.2,156.12,143.07
		c3.22,0.19,6.42,0.28,9.57,0.28c62.01,0,110.84-35.95,125.79-93.59C1088.14,277.23,1071.42,230.68,1034.57,207.56z"/>
</g>
<g>
	<path class="st3" d="M1133.39,268.86l-4.39,10.49h-6.32l15.59-36.81h7.53l16.26,36.81h-6.61l-4.59-10.49H1133.39z M1148.98,263.78
		c-4.24-9.75-6.26-14.44-7.11-17.02h-0.05c-0.77,2.49-3.16,8.63-6.64,17.02H1148.98z"/>
	<path class="st3" d="M1193.77,276.01c0,9.83-3.5,15.53-14.47,15.53c-10.7,0-12.8-6.1-13.3-9.15h5.89c0.74,2.44,2.54,4.64,7.73,4.64
		c7.16,0,8.44-4.61,8.44-10.65v-1.35c-1.59,2.85-4.26,4.75-9.66,4.75c-7.5,0-12.66-5.9-12.66-13.31c0-8.39,6.08-14.26,13.31-14.26
		c5.92,0,8.25,2.61,9.01,4.52c0.02-1.19,0.08-3.09,0.16-3.8h5.61c-0.05,2.56-0.05,5.13-0.05,7.69V276.01z M1171.68,266.24
		c0,5.03,3.24,8.82,8.21,8.82c5.21,0,8.29-3.21,8.29-9.11c0-5.7-2.9-9.01-8.03-9.01C1174.44,256.94,1171.68,261.46,1171.68,266.24z"
		/>
	<path class="st3" d="M1201.96,240.4h5.79v6.14h-5.79V240.4z M1201.96,252.94h5.79v26.41h-5.79V252.94z"/>
	<path class="st3" d="M1216.11,279.35V240.4h5.79v38.95H1216.11z"/>
	<path class="st3" d="M1233.91,267.51c0.26,4.61,3.41,8.03,8.43,8.03c3.89,0,5.98-1.51,7.28-3.84h5.79
		c-1.46,4.11-5.25,8.38-13.29,8.38c-9.79,0-14-6.98-14-13.86c0-7.85,5.23-14,13.89-14c10.09,0,13.77,7.28,13.77,13.83
		c0,0.5,0,0.88-0.02,1.47H1233.91z M1249.8,263.59c-0.21-2.87-1.74-7.04-7.82-7.04c-5.16,0-7.56,3.14-7.96,7.04H1249.8z"/>
	<path class="st3" d="M1314.82,255.48l-11.18,13.94c-4.84,6.02-7.99,10.64-15.78,10.64c-8.33,0-11.89-5.54-11.89-10.37
		c0-4.49,2.4-8.24,10.89-11.66c7.01-2.86,8.27-5.04,8.27-7.47c0-2.14-1.23-4.73-4.81-4.73c-3.06,0-4.84,2.16-4.84,4.85
		c0,2.33,1.47,4.34,4.42,6.56l25.4,22.1h-8.36l-22.54-19.66c-2.88-2.62-4.53-5.06-4.53-8.6c0-4.89,3.81-9.34,10.5-9.34
		c7.07,0,10.11,4.59,10.11,8.79c0,4.05-2.64,7.08-10.32,10.08c-7.69,3.05-8.36,6.16-8.36,8.47c0,3.31,2.59,6.12,6.51,6.12
		c4.22,0,6.26-1.92,11.39-8.59l8.5-11.15H1314.82z"/>
	<path class="st3" d="M1127.34,336.84v-36.81h7.26c8.77,12.54,18.77,25.43,20.91,29.36h0.1c-0.33-4.57-0.28-10.64-0.28-16.63v-12.73
		h5.65v36.81h-6.84c-4.99-6.91-18.8-26.39-21.33-30.65h-0.1c0.28,4.69,0.28,9.91,0.28,16.43v14.22H1127.34z"/>
	<path class="st3" d="M1196.41,323.63c0,7.53-4.96,13.94-14.52,13.94c-9.15,0-14.15-6.61-14.15-13.92c0-7.49,5.27-13.95,14.43-13.95
		C1191.59,309.71,1196.41,316.75,1196.41,323.63z M1173.66,323.65c0,4.79,2.98,9.3,8.44,9.3c5.67,0,8.36-4.26,8.36-9.23
		c0-4.98-2.9-9.41-8.47-9.41C1176.34,314.32,1173.66,318.66,1173.66,323.65z"/>
	<path class="st3" d="M1219.61,321.09v4.94h-16.76v-4.94H1219.61z"/>
	<path class="st3" d="M1252.83,328.42c-1.24,4.83-5.42,9.15-13.21,9.15c-9.58,0-14.09-6.34-14.09-13.88
		c0-7.42,5.11-13.98,14.15-13.98c9.28,0,12.54,5.94,13.06,9.31h-5.79c-0.81-2.21-2.69-4.75-7.31-4.75c-5.26,0-8.19,3.91-8.19,9.34
		c0,5.21,2.8,9.38,8.2,9.38c3.97,0,6.13-1.76,7.4-4.57H1252.83z"/>
	<path class="st3" d="M1285.77,323.63c0,7.53-4.96,13.94-14.52,13.94c-9.15,0-14.15-6.61-14.15-13.92c0-7.49,5.27-13.95,14.43-13.95
		C1280.94,309.71,1285.77,316.75,1285.77,323.63z M1263.01,323.65c0,4.79,2.98,9.3,8.44,9.3c5.67,0,8.36-4.26,8.36-9.23
		c0-4.98-2.9-9.41-8.47-9.41C1265.7,314.32,1263.01,318.66,1263.01,323.65z"/>
	<path class="st3" d="M1318.27,297.9v31.33c0,2.52,0,5.09,0.05,7.61h-5.65c-0.13-1.04-0.18-2.54-0.21-3.79
		c-1.36,2.2-3.52,4.51-9.48,4.51c-7.57,0-12.8-5.65-12.8-13.71c0-8.74,6.67-14.15,13.46-14.15c5.94,0,8.07,2.55,8.82,3.74V297.9
		H1318.27z M1296.13,323.74c0,4.7,2.82,9.11,8.23,9.11c5.81,0,8.3-3.75,8.3-9.28c0-5.49-1.99-9.15-8.16-9.15
		C1298.86,314.41,1296.13,319.01,1296.13,323.74z"/>
	<path class="st3" d="M1330.28,325c0.26,4.61,3.41,8.03,8.43,8.03c3.89,0,5.98-1.51,7.28-3.84h5.79c-1.46,4.11-5.25,8.38-13.29,8.38
		c-9.79,0-14-6.98-14-13.86c0-7.85,5.23-14,13.89-14c10.09,0,13.77,7.28,13.77,13.83c0,0.5,0,0.88-0.02,1.47H1330.28z
		 M1346.17,321.09c-0.21-2.87-1.74-7.04-7.82-7.04c-5.16,0-7.56,3.14-7.96,7.04H1346.17z"/>
	<path class="st3" d="M1130.37,383.56c1.27,4.04,4.28,6.84,11.26,6.84c6.88,0,9.38-2.55,9.38-5.73c0-3.36-1.95-5.4-11.03-6.93
		c-11.47-1.95-14.05-5.58-14.05-10.58c0-6.68,6.37-10.39,14.55-10.39c12.13,0,15.1,6.32,15.51,10.17h-6.15
		c-0.69-2.34-2.18-5.45-9.54-5.45c-5.05,0-8.16,1.7-8.16,5.08c0,2.8,1.51,4.5,9.52,5.87c13.45,2.32,15.61,6.47,15.61,11.62
		c0,5.99-4.75,11.04-16.13,11.04c-10.58,0-15.77-4.8-16.95-11.54H1130.37z"/>
	<path class="st3" d="M1188.2,387.6c0,2.78,0.16,6.15,0.24,6.74h-5.49c-0.21-0.88-0.29-2.81-0.31-3.65c-1.4,2.63-4.4,4.38-9.84,4.38
		c-7.41,0-10.19-4.49-10.19-8.52c0-6.8,6.12-8.69,13.72-8.69c2.92,0,5.31,0,6.22,0v-1.26c0-2.71-1.17-5.17-6.36-5.17
		c-4.71,0-5.8,2.02-6.28,4.22h-5.79c0.29-3.44,2.63-8.44,12.03-8.44c10.06,0,12.07,4.87,12.07,9.24V387.6z M1182.54,381.81
		c-0.77-0.02-2.55-0.02-6.09-0.02c-5.62,0-8.18,1.29-8.18,4.47c0,2.41,1.81,4.42,5.86,4.42c6.42,0,8.41-3.61,8.41-7.89V381.81z"/>
	<path class="st3" d="M1219.93,387.6c0,2.78,0.16,6.15,0.24,6.74h-5.49c-0.21-0.88-0.29-2.81-0.31-3.65
		c-1.4,2.63-4.4,4.38-9.84,4.38c-7.41,0-10.19-4.49-10.19-8.52c0-6.8,6.12-8.69,13.72-8.69c2.92,0,5.31,0,6.22,0v-1.26
		c0-2.71-1.17-5.17-6.36-5.17c-4.71,0-5.8,2.02-6.28,4.22h-5.79c0.29-3.44,2.63-8.44,12.03-8.44c10.06,0,12.07,4.87,12.07,9.24
		V387.6z M1214.27,381.81c-0.77-0.02-2.55-0.02-6.09-0.02c-5.62,0-8.18,1.29-8.18,4.47c0,2.41,1.81,4.42,5.86,4.42
		c6.42,0,8.41-3.61,8.41-7.89V381.81z"/>
	<path class="st3" d="M1232.08,383.56c1.27,4.04,4.28,6.84,11.26,6.84c6.88,0,9.38-2.55,9.38-5.73c0-3.36-1.95-5.4-11.03-6.93
		c-11.47-1.95-14.05-5.58-14.05-10.58c0-6.68,6.37-10.39,14.55-10.39c12.13,0,15.1,6.32,15.51,10.17h-6.15
		c-0.69-2.34-2.18-5.45-9.54-5.45c-5.05,0-8.16,1.7-8.16,5.08c0,2.8,1.51,4.5,9.52,5.87c13.45,2.32,15.61,6.47,15.61,11.62
		c0,5.99-4.75,11.04-16.13,11.04c-10.58,0-15.77-4.8-16.95-11.54H1232.08z"/>
</g>
</svg>
